<svg id="Capa_1" data-name="Capa 1" xmlns="http://www.w3.org/2000/svg" viewBox="0 0 204.16 231.58"><defs><style>.cls-1{fill:#fff;}</style></defs><path class="cls-1" d="M82,214.25a17.34,17.34,0,1,1-17.33-17.33A17.33,17.33,0,0,1,82,214.25Zm84.67-17.33A17.33,17.33,0,1,0,184,214.25,17.33,17.33,0,0,0,166.63,196.92Zm-8.34-68.13a13,13,0,0,1-13,13h-59a13,13,0,0,1-13-13v-69a13,13,0,0,1,13-13h59a13,13,0,0,1,13,13Zm-12-55.17a4.83,4.83,0,0,0-4.83-4.83H128.13a4.84,4.84,0,0,0-4.84,4.83V87a4.84,4.84,0,0,0,4.84,4.83h13.33A4.83,4.83,0,0,0,146.29,87ZM28.88,120.41c0-3.32,3.33-6.35,7-6.35s7,3,7,6.4a7.5,7.5,0,0,0,7.5,7.5,7.36,7.36,0,0,0,7.33-7.5,20.89,20.89,0,0,0-14.42-20V73.79h7.34a7.5,7.5,0,0,0,0-15H36.13a7.79,7.79,0,0,0-7.84,7.5v34c-8,3-14.58,11-14.58,20.1a7.59,7.59,0,0,0,15.17,0Zm174.41-20V66.29a7.22,7.22,0,0,0-7.16-7.5h-14.5a7.5,7.5,0,1,0,0,15h6.66v26.58c-8,3-14.41,11-14.41,20.09a7.56,7.56,0,0,0,15.12,0c0-3.35,3.36-6.4,7-6.4s7,3,7,6.35a7.51,7.51,0,0,0,7.51,7.5,7.36,7.36,0,0,0,7.33-7.5A21,21,0,0,0,203.29,100.43ZM98.38,32.79h9.91v-12a7.5,7.5,0,0,1,15,0v12h10.09c4.14,0,6.91-3.5,6.91-7.64v-.08a25,25,0,1,0-50-.07v.15C90.29,29.29,94.23,32.79,98.38,32.79Zm97.91,124H35a17.49,17.49,0,0,0-17.67,17.46v20.33A17.66,17.66,0,0,0,32.38,212a32.56,32.56,0,0,1,32.25-30.35c17.15,0,31.22,14.1,32.26,30.1h37.47c1-16,15.11-30.1,32.26-30.1a32.16,32.16,0,0,1,31.92,30.24,17.26,17.26,0,0,0,14.75-17.35V174.25C213.29,164.49,206.05,156.79,196.29,156.79Z" transform="translate(-13.71)"/></svg>