<svg id="Capa_1" data-name="Capa 1" xmlns="http://www.w3.org/2000/svg" viewBox="0 0 511 504.2"><defs><style>.cls-1{fill:#fff;}</style></defs><path class="cls-1" d="M511,420.63a8,8,0,0,0,0-1.47,71.48,71.48,0,0,0-10.34-34.27L275.58,14.7a23.49,23.49,0,0,0-40.16,0L10.4,384.89A71.48,71.48,0,0,0,.06,419.16a8,8,0,0,0,0,1.47c0,.46,0,.93,0,1.39v43.75a15.45,15.45,0,0,0,19.31,15L85.42,464.3,88,500.63a7.5,7.5,0,0,0,7.48,7h48a7.5,7.5,0,0,0,7.48-7L154.81,447l45.61-11.38H248v64.5a7.5,7.5,0,0,0,15,0V435.6h47.58L356.19,447,360,500.63a7.5,7.5,0,0,0,7.48,7h48a7.5,7.5,0,0,0,7.48-7l2.6-36.33,66.05,16.48a15.51,15.51,0,0,0,19.37-15V422C511,421.56,511,421.09,511,420.63ZM248.24,22.49a8.49,8.49,0,0,1,14.52,0l225,370.19a56.39,56.39,0,0,1,6.94,17.41l-64.09-16.54.35-4.92c0-.09,0-.18,0-.28s0-.17,0-.25V388c0-.13,0-.26,0-.39l0-.37s0-.05,0-.07l-8-64a7.5,7.5,0,0,0-7.44-6.57h-48a7.49,7.49,0,0,0-7.44,6.57l-6.32,50.54-39.82-10.28L295,123.51a7.51,7.51,0,0,0-3-5.41l-22.4-16.8a23.61,23.61,0,0,0-28.2,0L219,118.1a7.51,7.51,0,0,0-3,5.41L197.08,363.43l-39.82,10.28-6.32-50.54a7.5,7.5,0,0,0-7.44-6.57h-48a7.49,7.49,0,0,0-7.44,6.57l-8,64a.17.17,0,0,0,0,.07l0,.37c0,.13,0,.26,0,.39v.1c0,.08,0,.17,0,.25a2.53,2.53,0,0,0,0,.28l.35,4.92L16.28,410.09a56.39,56.39,0,0,1,6.94-17.41ZM415,380.6H368l6.13-49h34.76Zm-167-244a15.64,15.64,0,0,0-1.8,1.15l-17.27,13,1.78-22.58,17.29-13Zm15-21.45,17.29,13,1.78,22.58-17.27-13a15.64,15.64,0,0,0-1.8-1.15ZM143,380.6H96l6.12-49h34.76ZM15.62,466.26a.49.49,0,0,1-.43-.09.46.46,0,0,1-.19-.4V425.91l66.46-17.15,2.88,40.35Zm86.86,26.34-6.93-97h47.9l-6.93,97ZM159,388.75l36.86-9.51-3.38,42.89-36.51,9.11ZM263,420.6V324.1a7.5,7.5,0,0,0-15,0v96.5H207.62l19.73-250L255.2,149.7a.51.51,0,0,1,.6,0l27.85,20.88,19.74,250Zm55.55,1.53-3.38-42.89L352,388.75l3,42.49Zm55.93,70.47-6.93-97h47.9l-6.93,97Zm121.33-26.43a.51.51,0,0,1-.49.07l-68.66-17.13,2.88-40.35L496,425.91v39.86A.46.46,0,0,1,495.81,466.17Z" transform="translate(0 -3.4)"/></svg>