<svg id="Capa_1" data-name="Capa 1" xmlns="http://www.w3.org/2000/svg" viewBox="0 0 479 479"><defs><style>.cls-1{fill:#fff;}</style></defs><path class="cls-1" d="M479,375.5A23.52,23.52,0,0,0,455.5,352H451A239.54,239.54,0,0,0,232.77.09,234.88,234.88,0,0,0,124.91,29.81a23.73,23.73,0,0,0-6.41-3.19,23.28,23.28,0,0,0-20.83,3.26L56.74,59.11A135.77,135.77,0,0,0,0,169.37V375.5a23.51,23.51,0,0,0,11.63,20.29l-2.31,3.46A55.3,55.3,0,0,0,0,430V471.5A7.5,7.5,0,0,0,7.5,479h464a7.5,7.5,0,0,0,7.5-7.5v-48a7.45,7.45,0,0,0-.93-3.61,55.24,55.24,0,0,0-8.39-20.64l-2.3-3.46A23.55,23.55,0,0,0,479,375.5ZM233.19,15.09A224.55,224.55,0,0,1,433.82,352H313.29a95.82,95.82,0,0,1-38-7.8,39.47,39.47,0,0,0-55.38-51L133.79,42.05A219.6,219.6,0,0,1,233.19,15.09ZM239.5,303A24.5,24.5,0,1,1,215,327.5,24.53,24.53,0,0,1,239.5,303ZM15,169.37A120.75,120.75,0,0,1,65.46,71.32l40.93-29.24a8.5,8.5,0,0,1,9.63-.16,7.29,7.29,0,0,0,.66,1.42,7.47,7.47,0,0,0,2.55,2.57c0,.11.1.22.14.33L207.75,304a39.47,39.47,0,0,0,58.72,52.29,7.57,7.57,0,0,0,2,1.27A110.64,110.64,0,0,0,313.29,367H455.5a8.51,8.51,0,0,1,8.5,8.5,8.5,8.5,0,0,1-8.5,8.5H23.5a8.5,8.5,0,0,1-8.5-8.5ZM15,447H255.5a7.5,7.5,0,0,0,0-15H15v-2a40.35,40.35,0,0,1,6.8-22.46L27.51,399h424l5.71,8.57a40.53,40.53,0,0,1,4.28,8.43h-94A23.52,23.52,0,0,0,344,439.5V464H15Zm449,17H359V439.5a8.51,8.51,0,0,1,8.5-8.5H464Z" transform="translate(0 0)"/><path class="cls-1" d="M324.81,434.2a7.48,7.48,0,1,0,2.2,5.3A7.55,7.55,0,0,0,324.81,434.2Z" transform="translate(0 0)"/><path class="cls-1" d="M287.5,432a7.49,7.49,0,1,0,5.31,2.2A7.55,7.55,0,0,0,287.5,432Z" transform="translate(0 0)"/><path class="cls-1" d="M316.48,63c5.23,2.28,10.42,4.83,15.42,7.57a7.5,7.5,0,0,0,7.21-13.15c-5.39-3-11-5.7-16.62-8.17a7.5,7.5,0,1,0-6,13.75Z" transform="translate(0 0)"/><path class="cls-1" d="M355,85.49a191.94,191.94,0,0,1,66.94,92.41A7.49,7.49,0,0,0,429,183a7.4,7.4,0,0,0,2.4-.39,7.51,7.51,0,0,0,4.71-9.51A206.87,206.87,0,0,0,364,73.5a7.5,7.5,0,0,0-9,12Z" transform="translate(0 0)"/></svg>