<svg id="Capa_1" data-name="Capa 1" xmlns="http://www.w3.org/2000/svg" viewBox="0 0 509.9 511"><defs><style>.cls-1{fill:#fff;}</style></defs><path class="cls-1" d="M505.2,129.49A95.07,95.07,0,0,0,456.88,12.81l-3.39-8.18a7.5,7.5,0,0,0-9.8-4.06L377.17,28.12a23.5,23.5,0,0,0-12.72,30.71l.21.49L103.15,169.1a15.5,15.5,0,0,0-8.39,20.25L98,197.2,45.35,219l-.19-.47a15.51,15.51,0,0,0-20.25-8.38l-14.78,6.12a15.5,15.5,0,0,0-8.39,20.25l24.49,59.13a15.5,15.5,0,0,0,20.25,8.39l14.78-6.13a15.49,15.49,0,0,0,8.39-20.25l-.19-.46,52.66-21.81,3.26,7.85a15.55,15.55,0,0,0,14.31,9.58,15.56,15.56,0,0,0,6-1.2l21-8.81a8.3,8.3,0,0,0,1.17-.36,8,8,0,0,0,1.16-.61l62.47-26.23a28.9,28.9,0,0,0,2.8,3L89.07,499.86a7.5,7.5,0,1,0,13.11,7.28L162.26,399h85.87V503.5a7.5,7.5,0,0,0,15,0V399H349l60.08,108.14a7.5,7.5,0,1,0,13.11-7.28L277,238.58a31.42,31.42,0,0,0,10.1-23.08c0-1.07-.06-2.13-.16-3.18l120.16-50.45.18.43a23.55,23.55,0,0,0,21.74,14.51,23.26,23.26,0,0,0,9-1.79l66.52-27.55a7.5,7.5,0,0,0,4.06-9.8ZM55.79,283.81a.45.45,0,0,1-.27.27L40.74,290.2a.47.47,0,0,1-.38,0,.47.47,0,0,1-.27-.27L15.59,230.8a.47.47,0,0,1,0-.38.48.48,0,0,1,.28-.27L30.65,224a.49.49,0,0,1,.19,0,.5.5,0,0,1,.19,0,.5.5,0,0,1,.27.27l12.25,29.57L52.73,276h0l3.06,7.39A.49.49,0,0,1,55.79,283.81Zm7.93-20.45-6.31-15.24-6.32-15.24,52.66-21.82,12.63,30.49ZM489.35,67.71a79.77,79.77,0,0,1,5.8,37.51L466.92,37.07A79.86,79.86,0,0,1,489.35,67.71ZM139.89,257.79a.49.49,0,0,1-.39,0,.47.47,0,0,1-.27-.27l-15.3-37-9.19-22.17h0l-6.12-14.78a.47.47,0,0,1,0-.38.54.54,0,0,1,.3-.29l15.18-6.37,31,74.83ZM272.13,215.5a16.5,16.5,0,1,1-16.5-16.5A16.52,16.52,0,0,1,272.13,215.5ZM170.59,384l76.74-138.12c.26.08.53.15.8.21V384Zm170.07,0H263.13V246.09l.8-.21ZM281.91,198.17a31.5,31.5,0,0,0-57.08,24l-55.9,23.47-31-74.84L370.39,73.18l31,74.84Zm150.36-37a8.5,8.5,0,0,1-11.1-4.6L378.31,53.09A8.5,8.5,0,0,1,382.91,42L442.5,17.3l49.36,119.18Z" transform="translate(-0.55 0)"/></svg>